<svg id="Слой_1" data-name="Слой 1" xmlns="http://www.w3.org/2000/svg" viewBox="0 0 297 178.62"><defs><style>.cls-1{fill:#004c9c;fill-rule:evenodd;}</style></defs><title>SPK</title><path class="cls-1" d="M92.23,108.91l198,.18v4l-200.32.22Z"/><path class="cls-1" d="M85.62,121.45H282.43v3.63L83.74,125Z"/><path class="cls-1" d="M0,125,36.77,96.83,113.28,0,71.15,96.77l27.49.06L83.79,125h-21l-21.93,53.6L26.65,125Z"/><path class="cls-1" d="M237.29,49.71h18.24l-8.69,22.75,27-22.76,23.2,0L265.36,77.33l10.34,29.09H252.54l-9.69-23.29-9.2,23.21-18.92,0Z"/><path class="cls-1" d="M169.28,49.68h54.59l-22,56.65-18.8,0L199.26,65H182L166.2,106.34h-19Z"/><path class="cls-1" d="M156.34,51.11l-8,20c-5.71-6.63-16.32-5.48-24.26.67-5.39,4.18-6,10.87-2.82,14.25,1.95,2.08,6.07,3.1,12.59,1.71,2.79-.61,5.54-2,9.77-3.68l-7.59,19.12c-3.29,2.27-22.13,6.91-31.26.56-4.06-2.82-6.06-8.41-6.08-12.38,0-8,4.17-18.24,9.34-25C121.38,48.83,138.84,45.22,156.34,51.11Z"/></svg>